<svg id="visual" viewBox="0 0 960 540" width="960" height="540" xmlns="http://www.w3.org/2000/svg" xmlns:xlink="http://www.w3.org/1999/xlink" version="1.1"><rect x="0" y="0" width="960" height="540" fill="#043985"></rect><defs><linearGradient id="grad1_0" x1="43.8%" y1="100%" x2="100%" y2="0%"><stop offset="14.444444444444446%" stop-color="#d9fa3c" stop-opacity="1"></stop><stop offset="85.55555555555554%" stop-color="#d9fa3c" stop-opacity="1"></stop></linearGradient></defs><defs><linearGradient id="grad1_1" x1="43.8%" y1="100%" x2="100%" y2="0%"><stop offset="14.444444444444446%" stop-color="#d9fa3c" stop-opacity="1"></stop><stop offset="85.55555555555554%" stop-color="#6dea61" stop-opacity="1"></stop></linearGradient></defs><defs><linearGradient id="grad1_2" x1="43.8%" y1="100%" x2="100%" y2="0%"><stop offset="14.444444444444446%" stop-color="#00d48a" stop-opacity="1"></stop><stop offset="85.55555555555554%" stop-color="#6dea61" stop-opacity="1"></stop></linearGradient></defs><defs><linearGradient id="grad1_3" x1="43.8%" y1="100%" x2="100%" y2="0%"><stop offset="14.444444444444446%" stop-color="#00d48a" stop-opacity="1"></stop><stop offset="85.55555555555554%" stop-color="#00b9ac" stop-opacity="1"></stop></linearGradient></defs><defs><linearGradient id="grad1_4" x1="43.8%" y1="100%" x2="100%" y2="0%"><stop offset="14.444444444444446%" stop-color="#009cc0" stop-opacity="1"></stop><stop offset="85.55555555555554%" stop-color="#00b9ac" stop-opacity="1"></stop></linearGradient></defs><defs><linearGradient id="grad1_5" x1="43.8%" y1="100%" x2="100%" y2="0%"><stop offset="14.444444444444446%" stop-color="#009cc0" stop-opacity="1"></stop><stop offset="85.55555555555554%" stop-color="#007cc1" stop-opacity="1"></stop></linearGradient></defs><defs><linearGradient id="grad1_6" x1="43.8%" y1="100%" x2="100%" y2="0%"><stop offset="14.444444444444446%" stop-color="#005bab" stop-opacity="1"></stop><stop offset="85.55555555555554%" stop-color="#007cc1" stop-opacity="1"></stop></linearGradient></defs><defs><linearGradient id="grad1_7" x1="43.8%" y1="100%" x2="100%" y2="0%"><stop offset="14.444444444444446%" stop-color="#005bab" stop-opacity="1"></stop><stop offset="85.55555555555554%" stop-color="#043985" stop-opacity="1"></stop></linearGradient></defs><defs><linearGradient id="grad2_0" x1="0%" y1="100%" x2="56.3%" y2="0%"><stop offset="14.444444444444446%" stop-color="#d9fa3c" stop-opacity="1"></stop><stop offset="85.55555555555554%" stop-color="#d9fa3c" stop-opacity="1"></stop></linearGradient></defs><defs><linearGradient id="grad2_1" x1="0%" y1="100%" x2="56.3%" y2="0%"><stop offset="14.444444444444446%" stop-color="#6dea61" stop-opacity="1"></stop><stop offset="85.55555555555554%" stop-color="#d9fa3c" stop-opacity="1"></stop></linearGradient></defs><defs><linearGradient id="grad2_2" x1="0%" y1="100%" x2="56.3%" y2="0%"><stop offset="14.444444444444446%" stop-color="#6dea61" stop-opacity="1"></stop><stop offset="85.55555555555554%" stop-color="#00d48a" stop-opacity="1"></stop></linearGradient></defs><defs><linearGradient id="grad2_3" x1="0%" y1="100%" x2="56.3%" y2="0%"><stop offset="14.444444444444446%" stop-color="#00b9ac" stop-opacity="1"></stop><stop offset="85.55555555555554%" stop-color="#00d48a" stop-opacity="1"></stop></linearGradient></defs><defs><linearGradient id="grad2_4" x1="0%" y1="100%" x2="56.3%" y2="0%"><stop offset="14.444444444444446%" stop-color="#00b9ac" stop-opacity="1"></stop><stop offset="85.55555555555554%" stop-color="#009cc0" stop-opacity="1"></stop></linearGradient></defs><defs><linearGradient id="grad2_5" x1="0%" y1="100%" x2="56.3%" y2="0%"><stop offset="14.444444444444446%" stop-color="#007cc1" stop-opacity="1"></stop><stop offset="85.55555555555554%" stop-color="#009cc0" stop-opacity="1"></stop></linearGradient></defs><defs><linearGradient id="grad2_6" x1="0%" y1="100%" x2="56.3%" y2="0%"><stop offset="14.444444444444446%" stop-color="#007cc1" stop-opacity="1"></stop><stop offset="85.55555555555554%" stop-color="#005bab" stop-opacity="1"></stop></linearGradient></defs><defs><linearGradient id="grad2_7" x1="0%" y1="100%" x2="56.3%" y2="0%"><stop offset="14.444444444444446%" stop-color="#043985" stop-opacity="1"></stop><stop offset="85.55555555555554%" stop-color="#005bab" stop-opacity="1"></stop></linearGradient></defs><g transform="translate(960, 540)"><path d="M-540 0C-544.5 -33.8 -549 -67.6 -531.8 -93.8C-514.6 -120 -475.6 -138.6 -467 -170C-458.4 -201.4 -480.1 -245.6 -465.9 -269C-451.7 -292.4 -401.7 -294.9 -377.7 -316.9C-353.7 -338.9 -355.7 -380.5 -338.7 -403.7C-321.8 -426.9 -285.7 -431.7 -256.5 -444.3C-227.3 -456.9 -205 -477.2 -178.5 -490.5C-152.1 -503.8 -121.6 -510 -91.2 -517C-60.7 -524.1 -30.4 -532 0 -540L0 0Z" fill="#004a9a"></path><path d="M-472.5 0C-476.4 -29.6 -480.4 -59.1 -465.3 -82C-450.3 -105 -416.2 -121.2 -408.6 -148.7C-401.1 -176.2 -420.1 -214.9 -407.7 -235.4C-395.3 -255.8 -351.5 -258 -330.5 -277.3C-309.5 -296.6 -311.3 -333 -296.4 -353.2C-281.5 -373.5 -250 -377.7 -224.4 -388.7C-198.9 -399.8 -179.3 -417.6 -156.2 -429.2C-133.1 -440.8 -106.4 -446.2 -79.8 -452.4C-53.1 -458.6 -26.6 -465.5 0 -472.5L0 0Z" fill="#006cb9"></path><path d="M-405 0C-408.4 -25.3 -411.8 -50.7 -398.8 -70.3C-385.9 -90 -356.7 -103.9 -350.3 -127.5C-343.8 -151.1 -360.1 -184.2 -349.4 -201.8C-338.8 -219.3 -301.2 -221.1 -283.2 -237.7C-265.2 -254.2 -266.8 -285.4 -254.1 -302.8C-241.3 -320.2 -214.3 -323.8 -192.4 -333.2C-170.5 -342.6 -153.7 -357.9 -133.9 -367.9C-114.1 -377.8 -91.2 -382.5 -68.4 -387.8C-45.5 -393.1 -22.8 -399 0 -405L0 0Z" fill="#008cc3"></path><path d="M-337.5 0C-340.3 -21.1 -343.1 -42.2 -332.4 -58.6C-321.6 -75 -297.3 -86.6 -291.9 -106.2C-286.5 -125.9 -300.1 -153.5 -291.2 -168.1C-282.3 -182.7 -251 -184.3 -236 -198.1C-221 -211.8 -222.3 -237.8 -211.7 -252.3C-201.1 -266.8 -178.6 -269.8 -160.3 -277.7C-142.1 -285.5 -128.1 -298.3 -111.6 -306.6C-95.1 -314.9 -76 -318.7 -57 -323.1C-38 -327.6 -19 -332.5 0 -337.5L0 0Z" fill="#00abb9"></path><path d="M-270 0C-272.3 -16.9 -274.5 -33.8 -265.9 -46.9C-257.3 -60 -237.8 -69.3 -233.5 -85C-229.2 -100.7 -240.1 -122.8 -233 -134.5C-225.9 -146.2 -200.8 -147.4 -188.8 -158.4C-176.8 -169.5 -177.9 -190.3 -169.4 -201.9C-160.9 -213.4 -142.8 -215.8 -128.3 -222.1C-113.7 -228.4 -102.5 -238.6 -89.3 -245.3C-76.1 -251.9 -60.8 -255 -45.6 -258.5C-30.4 -262 -15.2 -266 0 -270L0 0Z" fill="#00c79d"></path><path d="M-202.5 0C-204.2 -12.7 -205.9 -25.3 -199.4 -35.2C-193 -45 -178.4 -52 -175.1 -63.7C-171.9 -75.5 -180 -92.1 -174.7 -100.9C-169.4 -109.6 -150.6 -110.6 -141.6 -118.8C-132.6 -127.1 -133.4 -142.7 -127 -151.4C-120.7 -160.1 -107.1 -161.9 -96.2 -166.6C-85.2 -171.3 -76.9 -179 -67 -183.9C-57 -188.9 -45.6 -191.2 -34.2 -193.9C-22.8 -196.5 -11.4 -199.5 0 -202.5L0 0Z" fill="#00e076"></path><path d="M-135 0C-136.1 -8.4 -137.3 -16.9 -132.9 -23.4C-128.6 -30 -118.9 -34.6 -116.8 -42.5C-114.6 -50.4 -120 -61.4 -116.5 -67.3C-112.9 -73.1 -100.4 -73.7 -94.4 -79.2C-88.4 -84.7 -88.9 -95.1 -84.7 -100.9C-80.4 -106.7 -71.4 -107.9 -64.1 -111.1C-56.8 -114.2 -51.2 -119.3 -44.6 -122.6C-38 -125.9 -30.4 -127.5 -22.8 -129.3C-15.2 -131 -7.6 -133 0 -135L0 0Z" fill="#a6f34d"></path><path d="M-67.5 0C-68.1 -4.2 -68.6 -8.4 -66.5 -11.7C-64.3 -15 -59.5 -17.3 -58.4 -21.2C-57.3 -25.2 -60 -30.7 -58.2 -33.6C-56.5 -36.5 -50.2 -36.9 -47.2 -39.6C-44.2 -42.4 -44.5 -47.6 -42.3 -50.5C-40.2 -53.4 -35.7 -54 -32.1 -55.5C-28.4 -57.1 -25.6 -59.7 -22.3 -61.3C-19 -63 -15.2 -63.7 -11.4 -64.6C-7.6 -65.5 -3.8 -66.5 0 -67.5L0 0Z" fill="#d9fa3c"></path></g><g transform="translate(0, 0)"><path d="M540 0C525.2 28.5 510.4 56.9 510.1 89.9C509.9 123 524.3 160.5 507.4 184.7C490.6 208.9 442.6 219.7 421.8 243.5C400.9 267.3 407.1 304.1 397.6 333.6C388 363.1 362.6 385.2 333.6 397.6C304.6 410 271.9 412.7 244.5 423.5C217.1 434.3 194.8 453.2 169.6 466.1C144.5 479 116.4 486 87.7 497.3C58.9 508.7 29.5 524.3 0 540L0 0Z" fill="#004a9a"></path><path d="M472.5 0C459.5 24.9 446.6 49.8 446.4 78.7C446.2 107.6 458.7 140.4 444 161.6C429.3 182.8 387.3 192.2 369 213.1C350.8 233.9 356.3 266.1 347.9 291.9C339.5 317.7 317.3 337 291.9 347.9C266.5 358.7 238 361.1 213.9 370.6C189.9 380 170.4 396.5 148.4 407.8C126.4 419.1 101.9 425.3 76.7 435.2C51.6 445.1 25.8 458.8 0 472.5L0 0Z" fill="#006cb9"></path><path d="M405 0C393.9 21.4 382.8 42.7 382.6 67.5C382.4 92.2 393.2 120.4 380.6 138.5C368 156.7 332 164.8 316.3 182.6C300.7 200.5 305.4 228.1 298.2 250.2C291 272.3 272 288.9 250.2 298.2C228.4 307.5 204 309.5 183.4 317.6C162.8 325.7 146.1 339.9 127.2 349.6C108.4 359.3 87.3 364.5 65.8 373C44.2 381.5 22.1 393.2 0 405L0 0Z" fill="#008cc3"></path><path d="M337.5 0C328.2 17.8 319 35.6 318.8 56.2C318.7 76.8 327.7 100.3 317.1 115.4C306.6 130.5 276.6 137.3 263.6 152.2C250.6 167.1 254.5 190.1 248.5 208.5C242.5 226.9 226.6 240.7 208.5 248.5C190.4 256.2 170 257.9 152.8 264.7C135.7 271.4 121.7 283.2 106 291.3C90.3 299.4 72.8 303.8 54.8 310.8C36.8 317.9 18.4 327.7 0 337.5L0 0Z" fill="#00abb9"></path><path d="M270 0C262.6 14.2 255.2 28.5 255.1 45C254.9 61.5 262.1 80.3 253.7 92.3C245.3 104.4 221.3 109.8 210.9 121.7C200.4 133.7 203.6 152.1 198.8 166.8C194 181.5 181.3 192.6 166.8 198.8C152.3 205 136 206.3 122.3 211.7C108.5 217.1 97.4 226.6 84.8 233C72.2 239.5 58.2 243 43.8 248.7C29.5 254.3 14.7 262.2 0 270L0 0Z" fill="#00c79d"></path><path d="M202.5 0C196.9 10.7 191.4 21.4 191.3 33.7C191.2 46.1 196.6 60.2 190.3 69.3C184 78.3 166 82.4 158.2 91.3C150.3 100.2 152.7 114.1 149.1 125.1C145.5 136.2 136 144.4 125.1 149.1C114.2 153.7 102 154.8 91.7 158.8C81.4 162.9 73 169.9 63.6 174.8C54.2 179.6 43.7 182.3 32.9 186.5C22.1 190.7 11.1 196.6 0 202.5L0 0Z" fill="#00e076"></path><path d="M135 0C131.3 7.1 127.6 14.2 127.5 22.5C127.5 30.7 131.1 40.1 126.9 46.2C122.7 52.2 110.7 54.9 105.4 60.9C100.2 66.8 101.8 76 99.4 83.4C97 90.8 90.7 96.3 83.4 99.4C76.1 102.5 68 103.2 61.1 105.9C54.3 108.6 48.7 113.3 42.4 116.5C36.1 119.8 29.1 121.5 21.9 124.3C14.7 127.2 7.4 131.1 0 135L0 0Z" fill="#a6f34d"></path><path d="M67.5 0C65.6 3.6 63.8 7.1 63.8 11.2C63.7 15.4 65.5 20.1 63.4 23.1C61.3 26.1 55.3 27.5 52.7 30.4C50.1 33.4 50.9 38 49.7 41.7C48.5 45.4 45.3 48.1 41.7 49.7C38.1 51.2 34 51.6 30.6 52.9C27.1 54.3 24.3 56.6 21.2 58.3C18.1 59.9 14.6 60.8 11 62.2C7.4 63.6 3.7 65.5 0 67.5L0 0Z" fill="#d9fa3c"></path></g></svg>